<svg xmlns="http://www.w3.org/2000/svg" id="Layer_1" data-name="Layer 1" version="1.1" viewBox="53.59 198.73 700.14 403.87">
	<defs>
		<style>
			.cls-1 {
			fill-rule: evenodd;
			}
			
			.cls-1, .cls-2 {
			fill: #000;
			stroke-width: 0px;
			}
		</style>
	</defs>
	<ellipse class="cls-2" cx="132.2" cy="527.2" rx="1.2" ry="2.1" />
	<path class="cls-1" d="M119.1,522c-.7,0-1.2.9-1.2,2.1s.5,2.1,1.2,2.1,1.2-.9,1.2-2.1-.5-2.1-1.2-2.1Z" />
	<path class="cls-1" d="M229.2,532.2c.9,0,1.6-.8,1.6-1.8s-.7-1.8-1.6-1.8-1.6.8-1.6,1.8.7,1.8,1.6,1.8Z" />
	<path class="cls-1" d="M304.2,504.3c1.6-1.1,7-5,10.9-5.3s5-.4,5.4-1.1c.4-.7.9-2.3,0-2.3s-7.2.9-7.6.9-1-1.6-1-1.6c0,0-3.3,1-3,1.7.3.7,0,1.6-.4,1.9-.4.3-5.9,3.9-7,4.9-1.1,1-1.3,2-1.3,2,1,.1,2.4.1,4-1Z" />
	<path class="cls-1" d="M83.9,393c-1.4,8.6-.8,16.6,1.3,21.7l-.4-26.1c-.3,1.4-.6,2.9-.9,4.4Z" />
	<path class="cls-1" d="M316.4,558.8c4.4,0,7.9-2.9,7.9-2.9-1.1,0-5.6.7-6.3.9s-.4,1.3-1.6,2Z" />
	<path class="cls-1" d="M292.8,534.9c-.6-4.4-.3-6.3-.3-6.3l-1.7-1.1s-1,1.7-.6,7c.4,5.3,3.7,12.2,3.7,12.2.7,1.1,1.3,1.1,2,1,.7-.1.6-1.9.1-2.6s-2.7-5.7-3.3-10.2Z" />
	<path class="cls-1" d="M106.2,396.6c.2-1,.3-2,.4-2.9l-10.7,25.2c4.5-3.4,8.6-11.9,10.3-22.3Z" />
	<path class="cls-1" d="M384.8,379.1c-1.7.7-14.6,3.6-14.6,3.6,0,0,16.2-.7,16.6-1.7.7-1.7-.3-2.6-2-1.9Z" />
	<path class="cls-1" d="M353.5,329.6c-4.6-1-18.2-2.9-18.2-2.9l.9,8.2,22.2-1.7s-.3-2.6-4.9-3.6Z" />
	<path class="cls-1" d="M92.5,420.4l-.4-17.2-4.5,15.5c.9,1,2,1.6,3.2,1.8.5,0,1.1,0,1.6,0Z" />
	<path class="cls-1" d="M91.6,395.6h3.6c0,.1,1.1,10.9,1.1,10.9l10.4-23.1c-.3-3.4-1-6.4-2-8.7l-8.4,18.2-4.3-.2.3-20.2c-1.3,1.4-2.6,3.3-3.7,5.5l.3,24.6,2.7-7Z" />
	<path class="cls-1" d="M99.2,369.2c-1.1-.2-2.3,0-3.4.6v14.2c0,0,6.3-13.3,6.3-13.3-.9-.8-1.8-1.3-2.9-1.5Z" />
	<path class="cls-1" d="M288.8,339l41.4-3.9-.9-10-36.8-7,36.2,4.7-6.2-55.1,9.7,53.5-4.3-44.1,7,46.9s14.6,2.6,20.2,3.4c5.6.9,6.4,5.2,6.4,5.2l14.3-1.1-8.3-.7-2.4-17.9,10.4-.3,2.4,18.7c1.6,0,2.4-.4,2.1-2-.3-1.6-7.9-53.8-8.6-59.1-.7-5.3-4.7-6.9-8-6.9s-86.2,5.7-86.2,5.7l-16,70.4,13.6-50.8,13.7,50.2Z" />
	<path class="cls-1" d="M659,494.2c-2.1.7-3.4,1.9-3.4,1.9,0,0,1.9-.9,3-.3s2.1,2,2.9,1.9,3-2.1,3-2.1c-1.1-1.1-3.3-2-5.4-1.3Z" />
	<path class="cls-1" d="M753.7,445.2c-.1-3.2-.8-6.8-3.8-8.4-.4-2.3-2.3-3.8-2.3-3.8,0,0,3.2-25.4,3.8-50.2.6-24.8-2.9-67.7-3.8-76,1.2-1.9,2.4-4.3,1.5-7.6s-2.3-5.3-2.3-5.3c0,0-1-12.1-4.6-29.7-3.6-17.5-9.2-31.7-12.2-36.5,1.5-1.2,2.7-3.8-1.5-6.8-8.6-6.3-40.4-16.2-71.5-19-31-2.8-119.3-4.2-171.1-2.3-51.8,1.9-200.8,8.7-241.8,12.2-41,3.5-83.1,9.3-99.6,15.2-16.5,5.9-22,18.2-22,18.2,0,0-3,1.3-3,3,0,1.7,2.3,3,2.3,3,0,0-37.2,66.7-38.8,70-1.6,3.3-3.8,12.2-3.8,12.2,0,0,0-9,0-9.9s-.2-3-1.5-4.6c-1.3-1.6-5.3-6.8-5.3-6.8,0,0,.3-14,0-16.7-.3-2.7-1.3-2.6-2.3-1.5-.9,1.1-1.5,2.8-1.5,5.3s-.8,3.8-.8,3.8c0,0-.9.4-3.8.8-1.7-.6-4.1-.2-3.8,2.3.3,2.5,1.5,1.5,1.5,1.5,0,0,12.4,10.1,13.7,14.4,1.2,4.4-.5,12.3-.8,15.2-.3,2.9,0,5.7,0,6.8,0,1.2.3,2.6,2.3,3-1.4,5.3-4.6,25.9-4.6,25.9,0,0-1-.2-2.3,0-1.3.2-2.3,1.5-2.3,1.5,0,0-5.8-.4-6.1,4.6-.3,5.6,2.9,6.4,6.1,6.1l2.3.8-5.3,12.2s-2.9,1-3,4.6c-8.8,2.4-8.3,24.4-6.1,31.2,2.2,6.8,7.6,9.1,7.6,9.1l3.8,1.5s1,20.3.8,28.9c-10.8,4.2-14.2,18.2-12.2,24.3,2,6.1,8.4,11.4,8.4,11.4,0,0-.6,3.3.8,5.3,1.3,2,36.5,17,39.5,18.2,3.1,1.2,6.1.8,6.1.8,0,0,.2,2.8,2.3,3.8,2.1,1,7,2.8,13.7,3.8-17.9,2.6-41.6,8.3-60.1,12.9-18.4,4.6-14.5,14.9-3,20.5,5.8,2.8,38.9,13.4,73.8,19.8,34.4,6.3,70.6,8.4,85.2,8.4,29.3,0,97.1-12.3,107.2-14.4,10.1-2.1,404.4-84.8,411.3-89,6.9-4.2-10-7.8-44.1-11.4,6.9-14.2,4.6-37.3,4.6-37.3l20.5.8s.2,5.6,0,6.8c-.2,1.3.3,2.2,1.5,3,1.2.9,10.4,3.6,11.4,3,1-.6,1.5-2.3,1.5-2.3,0,0,13.1-5.2,15.2-7.6,2.2-2.4,2.4-5.9,2.3-9.1ZM65.2,307h3.6l.3,3.3-4-3.3ZM71,308.6s-.4-10.9-.4-11.8h1l-.5,11.8ZM59.9,437.2c-.4-2.3,1-4.2-.5-4.8-1.5-.6-2.4-1.7-1.7-2.1.6-.4,2.6-.1,2.4-1.1-.2-1,1.4-2.8-.2-2.8s-3.2-2.9-1.7-3.2c1.5-.3,3.4-1.1,2-1.7s-3.4-1.6-1.7-2.3,2-1.5,2-2.1.9-2.3-.2-2.8c-1.1-.5-1.8-.9-1.8-1.5s.6-6.3,2-6.3,1.6,4,1.6,5.2-.4,1.4-.2,2.5c.2,1.1.8,6.8.2,7.8-.5,1.1-1.6,1.7-1,2.6.6.9,1.1,2.1.8,3.8-.3,1.6-1.6,1.8-.9,3.8.8,1.9.1,3.5.6,4.4s1.6,2,1.6,2c0,0-.4-8.5.1-9s1.3-1.9.6-2.5c-.6-.5-.9-2.4-.4-2.6s1.3-1.5.9-2.1c-.4-.6-.9-2-.9-2,0,0-.3-14.8-.3-15.8s1.4-3,2.3-3.2l.2,40.6s-5.4-2.3-5.8-4.5ZM744.3,296.4c1.7-.1,2,2,1.3,2.6s-356.8,37.6-356.8,37.6c0,0-.6-1.6-2.1-2.1,11.4-1.6,357.7-38.1,357.7-38.1ZM685.6,340.4l35.9-3.4c.7,0,1.3.5,1.4,1.2h0c0,.7-.5,1.3-1.2,1.4l-35.9,3.4c-.7,0-1.3-.5-1.4-1.2,0-.7.5-1.3,1.2-1.4ZM684.3,335.1c0-.7.5-1.3,1.2-1.4l35.9-3.4c.7,0,1.3.5,1.4,1.2,0,.7-.5,1.3-1.2,1.4l-35.9,3.4c-.7,0-1.3-.5-1.4-1.2ZM721.6,326l-35.9,3.4c-.7,0-1.3-.5-1.4-1.2,0-.7.5-1.3,1.2-1.4l35.9-3.4c.7,0,1.3.5,1.4,1.2,0,.7-.5,1.3-1.2,1.4ZM721.5,319.3l-35.9,3.4c-.7,0-1.3-.5-1.4-1.2,0-.7.5-1.3,1.2-1.4l35.9-3.4c.7,0,1.3.5,1.4,1.2s-.5,1.3-1.2,1.4ZM685.4,347.4l35.9-3.4c.7,0,1.3.5,1.4,1.2h0c0,.7-.5,1.3-1.2,1.4l-35.9,3.4c-.7,0-1.3-.5-1.4-1.2,0-.7.5-1.3,1.2-1.4ZM686.2,354.3l35.9-3.4c.7,0,1.3.5,1.4,1.2,0,.7-.5,1.3-1.2,1.4l-35.9,3.4c-.7,0-1.3-.5-1.4-1.2,0-.7.5-1.3,1.2-1.4ZM723.6,358.8c0,.7-.5,1.3-1.2,1.4l-35.9,3.4c-.7,0-1.3-.5-1.4-1.2,0-.7.5-1.3,1.2-1.4l35.9-3.4c.7,0,1.3.5,1.4,1.2ZM686.3,374.3l35.9-3.4c.7,0,1.3.5,1.4,1.2s-.5,1.3-1.2,1.4l-35.9,3.4c-.7,0-1.3-.5-1.4-1.2,0-.7.5-1.3,1.2-1.4ZM722.7,366.8l-35.9,3.4c-.7,0-1.3-.5-1.4-1.2,0-.7.5-1.3,1.2-1.4l35.9-3.4c.7,0,1.3.5,1.4,1.2s-.5,1.3-1.2,1.4ZM387.4,383.5l-9.3.9s.6,4.9-4.6,7c-5.2,2.1-8.3-1.9-8.3-1.9,0,0,3.4,1.3,6.7.1,2.2-.8,3.1-3.9,3.1-4.6s-3,0-5.2,0-5.9.1-7-.6c-1.1-.7-1.4-2.7.1-3.1,1.6-.4,7.6-.7,10.2-1.3l2.6-.6s.3-2.6-2.7-3.9c-3-1.3-7.6-.1-9.7,2.1,1.6-4,7.2-5.7,10.7-4.3,2.3.9,3.9,5.4,3.9,5.4,0,0,4-1.7,5.2-2s2.7-.1,2.7-.1c0,0-.4-21.9-.6-22.8-.1-.9-.4-1.5-2.3-1.3-5.4.6-30.6,3-48.7,5.4-18,2.4-69.3,8-81.6,10.3-12.3,2.3-42.8,9.6-42.8,9.6,0,0,13.5-6.7,45.5-11.7,32.1-5,129.4-15.7,130.5-16s1.3,2.1,1.4,4.2c.1,2,1.1,20.3,1.6,28.6.4,8.3,1.1,53.7,1.1,54.7s-2.6,1.4-4,1.6-72.5,9.1-79.3,10.3c-8.3,1.4-20.9,1.3-25.8,12.9-4.9,11.6-13,33.9-15,37.9-2,4-9,7.6-16.7,8.4-7.7.9-38.6,1.6-38.6,1.6,0,0,34.9-1.9,41.4-3.7,6.4-1.9,11-3.1,13.2-8,2.1-4.9,11.7-29.9,13-34.1,1.3-4.2,6.4-11.7,12.6-13.6,6.2-1.9,22.9-4,29.3-5,6.4-1,64.8-8.2,66.4-8.6,1.6-.4,1.7-1.3,1.7-3s-.9-51-.9-51ZM206.8,366.6c.6-.9,2-1.6,2.1-.4.1,1.1.4,9-.1,9.4s-2.6.7-2.6.3.6-5.4.6-5.4c0-1.4-.6-3,0-3.9ZM207,360.1c0,.1,0,.2,0,.2,0,0,0,0,0-.2,0-.9,0-4.5.4-5.5.4-1.1,1.9-6.2,1.9-6.2l21.2-.4s-17,4.6-20.3,6c-2.9,1.2-3.1,5.1-3.1,6.1ZM273.7,337.6c.1,2.3-2.7,3-4.2,3.1s-3.3-1-4.6-2.1c0,0,.8,3.3,2.7,4.6-9,.8-14.7,1.2-14.7,1.2l-.3-1.3,5.3-.7,16.3-73.6s-23.3.3-27,.3-6.9-.4-9.9,7c-3,7.4-20.9,54.7-21.9,57.4-1,2.7.9,8.2,3.7,9.4,2.9,1.3,10.6,1.4,10.6,1.4v-1.3c.1,0-9.9.1-11.6-5.2,4.7,2.3,8.6,2.4,10.9,2.3-6.3-1.6-8.7-2.3-9.3-4.9-.6-2.6,1.1-7,2.7-10.7,1.6-3.7,17.6-45.4,18.5-47.7.9-2.3,1.9-3.7,5.9-4.3,4-.6,23.8-.7,23.8-.7l-14.7,68.4-5.6.6s1,6.6.3,9.4c1.3-1.1,1.9-4,1.9-4,0,0,128.2-10.7,129.8-10.9,1.6-.1,2.9.3,3.3,1.3-5.3.6-127.1,13.2-127.1,13.2h51.8c0-.1-61.1,6.2-61.1,6.2,0,0,1.1-1.6.9-3.4-1,1.6-3.4,3-5.6,2.7s-2.7-2-2.7-2c0,0,4.6-.9,6-6.3,1.4-5.4-1.9-10.6-5.9-13-4.2-2.6-9,1.3-9.2,5.7-.1,3.3.4,6.3.4,6.3l-22.2-.3s-.7-2.6.6-6.4c1.3-3.9,24-64.5,25.5-67.6,1.4-3,3.9-5,9.4-5.3,5.6-.3,112.8-6.2,118.1-5.7,5.3.4,8.7,1.9,10.2,12.5s8.2,56.4,8.2,58-1.6,2.3-4.9,2.6c-2.5.2-71,6-105.5,8.9,1.6-1.1,2.7-3.1,2.7-5.4,0-3.9-6.3-7.2-6.3-7.2,0,0,4.7,5,4.9,7.3ZM233.1,354.6l2,2.6-23.8,1.3s.6-2.6,2.3-2.9,14.3-4.9,20.3-6c2.4,5,8.9,8.2,13.2,8.3-10.4,2-12.9-4.7-12.9-4.7l-13.6,2.1,12.5-.7ZM712,244.8l-36,2.2c-.7,0-1.3-.5-1.4-1.2,0-.7.5-1.3,1.2-1.4l36-2.2c.7,0,1.3.5,1.4,1.2h0c0,.7-.5,1.3-1.2,1.4ZM713.4,249.3c.7,0,1.3.5,1.4,1.2,0,.7-.5,1.3-1.2,1.4l-36,2.9c-.7,0-1.3-.5-1.4-1.2,0-.7.5-1.3,1.2-1.4l36-2.9ZM711.3,238.2l-36,2.1c-.7,0-1.3-.5-1.4-1.2s.5-1.3,1.2-1.4l36-2.1c.7,0,1.3.5,1.4,1.2s-.5,1.3-1.2,1.4ZM363.2,256.8c7.5,0,11.6,1.3,13.5,5.6,1.9,4.3,3.9,14.4,5.6,27,1.7,12.7,3.6,42.7,3.6,42.7,0,0-7.5-58.8-9-63.5-1.5-4.7-4.3-10.7-12.2-10.1-7.9.6-113.8,6.2-118.9,6.2s-9.2,2.4-10.9,6.4-22.5,59.7-25.5,67.8c-3,8.2-5.9,19.8-6.1,23.9-.2,4.2-6.8,35.7-7.7,48.8s-2.5,74.8-2.5,74.8c0,0-1.1-49.9,0-70.3,1.1-20.4,6.2-45.9,6.2-45.9-18.4,7.4-48.9,24-62.4,34.6-13.4,10.5-31.9,32.3-36.8,53.3-4.9,21-3.8,38.6-3.8,38.6,0,0-4.8-26.7,4-50.6,6.3-16.9,23.2-36.7,48.1-52.2,24.9-15.5,51.7-27,51.7-27,0,0,3.6-20.4,5.6-25.3,1.9-4.9,28.6-74.5,28.6-74.5,0,0-2.4,2.1-4.3,6.7-1.9,4.5-24.5,63.1-26.6,67.4-2.1,4.3-7.5,5.6-10.3,5.6s-37.8-3-37.8-3l41.2,6s-42.1-3-43.8-3.4c-1.7-.4-1.9-.4-1.5-1.5s.2-1.7-.6-1.7-2.4.2-3.2-.9c-.9-1.1,0-8.2,0-9.9s-1.3-15-1.3-17,3.2-15.7,3.4-17.4c.2-1.7,2.4-1.9,2.4-.4s-3.4,15.2-3.6,16.5c-.2,1.3.9,15.7.9,16.7s.4,2.4,1.1,3.6c.6,1.3,1.1,6.4,1.1,6.4,0,0,38.4,3.6,41.4,3.6s7.3-1.9,9.7-6.4c2.4-4.5,26.8-68.9,28.6-71.3,1.7-2.4,5.6-3.4,12.5-4.3,6.9-.9,392.4-27,412.8-28.1,20.4-1.1,71.3-3.9,71.3-3.9,0,0-335.3,25.1-364.1,26ZM151.4,430.5s-6.8,1.9-7.2,3.9c-.4,1.9-1.8,4.5-2.4,4.8s3.8,1.6,4.7-1.1c1-2.7.6-3.5,2.4-3.5s3,.9,4-.5c1-1.4,2-2.7,2-2.7,0,0,6.7,2.7,9.9,8.1,3.2,5.4,3.6,9.3,3.6,9.3,0,0-.5.9-1.6.2s-.5-2.6-2-2c-1.5.5-1.4,1.9-3.4,1.4-2-.5-5.9.6-9.8,0-3.9-.6-5.5-.5-6.7.3-1.2.9-2.7,1.2-2.7-.6v-3.4s-1.8-1-2,1c-.2,1.9.9,5,1,6.7.1,1.6,1.4,2.3,2.1.5.8-1.7,1.5-2,3.1-2.4s1.8.5,1.8.5c0,0-2.5.2-2.1,2.3.3,2,2.8,1.4,2.5,3.3-.3,1.9,1,2.7,2.1,1.7,1.2-1,1.8-1.9.2-2.5s-1.7-1.3-1.5-2.6c.2-1.3,1.2-1.8,2.1-1.9,1-.1,12,.4,12,.4l-11.1,11.2s11.6-5.2,12.8-6.1c1.2-1,.5-4.5,1-4.8s2-.1,2-.1c0,0-.3,8.9-6.1,13.6-5.8,4.7-13.5,5-18,2.6-3-1.6-8.7-7.1-9.9-13.8-1.5-8.7.9-16.2,6.1-20.6,5.3-4.4,10.9-3,10.9-3ZM145,427.6c.7-.3,1.4-.6,2.1-.9,2.3-.8,4.7-1.2,7.3-1.2,11.5,0,21.1,8.7,22.6,21.1-1.6.8-4.3,1.4-5.8,1.6-.8-12.1-10.9-20.8-23.1-20.8s-2.1,0-3.1.2ZM148.2,473.1c12.3,0,22.3-9.8,23-22.1,1.6-.3,4.3-.5,5.9-.1-.5,13.5-10.4,24.3-22.6,24.3s-4.5-.4-6.6-1.1c-1-.3-2-.8-2.9-1.3,1,.1,2.1.2,3.2.2ZM176.9,408.9c-1.1.2-1.9.4-2.4-.2s-1.6-3.8-2.5-3.9c.3,1,0,2.4,0,3.6,0,0-.2,3.4-2.5,4.5-2.3,1.1-5.4.8-6.8-2-1.4-2.8-.6-5.9,1.4-7.3,2-1.4,5.9-.6,6.4-.1.8.2.6-1.3.8-1.7s5.7-1.6,8.2-1.2c2.5.4,4.4,2.8,5,5.2.6,2.4-1.1,6.1-2.1,7,.4-2.3.6-5.5-.5-5.2-1.2.3-1.8,3.6-2.4,2.6-.5-1.1-1.1-2.8-1.1-2.8,0,0-.5,1.3-1.6,1.5ZM186.9,409.3c1.4,4.7-2.5,9.7-9.3,8.2,0,0,8.5-1.2,9.3-8.2ZM148.7,274.8c-.1-1.5,2.8-2.1,2.8-1s.3,17.9.3,18.6-1.3.9-2.1,1l-5.8,22s-6.2.2-10.2.3c-4,.1-4.3-1.3-3.6-2.4.6-1.1,16.7-33.6,16.7-33.6l2.1,11.2s-.1-14.6-.2-16.1ZM152.3,316c.1,1.1-1.1,1.8-1.6,1.4-.5-.4,1-10.6,1-10.6,0,0,.5,8.2.6,9.2ZM153.5,268.9c.1-2.6,3.3-8.2,7.7-8.2s27,2.4,27,2.4l-3.3,48.2-30.8,2.3s-.9-42.2-.7-44.8ZM188.4,310.8l3-47.5s27.8,1.9,30.2,2.1,4.9.6,4.9,1.7.9,3.1-.3,5.9c-1.1,2.7-15,35.4-15,35.4l-22.8,2.4ZM219.1,241.5c-8.6-6-25.8-15.2-45.5-14.6-19.8.6-41.5,13.2-41.5,13.2,0,0,8.3-9.2,30.6-15.2,22.3-6,122.9-12.5,150.4-14.3,27.5-1.9,113.4-5.2,165.9-7.6,52.5-2.4,138.3.6,164.2,1.6,25.9,1,56.5,7.4,67.3,11,10.7,3.6,17.3,9.3,15.6,9.6-1.7.3-21.2,2.1-31.8,2.9-10.6.7-58,3.3-58,3.3l80.1-7.9s-1.6-1.1-7.4-1.6c-5.9-.4-45.9,1-62,2.1-16.6,1.1-24.8,4.6-46.9,6.6-17.7,1.6-37.3,1.1-54.4,3.1-21.6,2.6-38.5,7.3-41.5,7.4-8.3.4-67.6,4.7-80.7,5.7-13.2,1-77.1,4.9-90.5,5.6-13.3.7-78.4,4.4-85.3,4.4s-51.8-1.4-71.3-2c-19.5-.6-44.9-3.6-46.4-4,0,0,31.5,2.3,39.2,2,7.7-.3,30.6.3,41.5-1.4,10.9-1.7,16.9-4,8.3-10ZM126.7,265.6c1.3-2.4,2.7-5.5,3.6-5.7,1-.2,8.8-1.1,10.2-1.1s2.4.4.6,4.4c-1.7,4-21.7,44.9-22.8,46.8-1.1,1.9-2.8,1.9-5,2-2.3.1-5.3.3-4.1-3.8,1.2-4.1,17.4-42.7,17.4-42.7ZM89.3,328.2c-.1-.8.4-2.3,1.5-2.5,1.1-.2,1.5-4.4,1.5-4.4l7.5-18.5s9.9-14.5,10.9-15.2c1.1-.8,2.5.3,2.5.3,0,0,2.9-10.8,3.3-12.5.4-1.6,2.9-1.5,3-1.1.1.4-1.2,4.6-2.5,8.1-1.3,3.4-2.5,6-2.9,6.8s-6,12.7-6.4,14.2c-.4,1.5-1,6.3-1,8.7s-.6,4.9-1.6,5.5-2.4,1.6-2.6-.2c-.2-1.8.4-7.5,1-11.1.5-3.5,7.1-15,7.1-15,0,0-7.8,10.9-8.6,12.1-.8,1.2-6.2,14.9-6.2,15.2s-.5,3.3-1.3,4.6c-.8,1.3-1,2.5-1,4.5s-1,3.9-.9,4.3c.1.4,13.7,4.7,16.4,5.2.8.1,4.5.4,9.2.8-4.2-3.6-4.2-8-1.3-14.1,3.3-7,31.6-57.7,31.6-57.7,0,0-25.6,50.4-27.9,54.8-2.3,4.4-4,9.3-3.1,12.7.5,1.9,3.6,3.6,6.2,4.6,9.6.7,20.4,1.4,20.4,1.4.1,4.5,1.8,7,3.9,8.2-4.9,0-5.8-4.3-5.8-4.3,0,0-27.4-2.8-32.5-3.6-5.2-.9-10.6-2.7-12.8-3.4-2.1-.8-4.7-2.5-5.4-3-.6-.5-3,1.2-3.4.4s-.2-1.5,1.1-1.6c1.3-.1,1.2-1.5.1-1.8s-4.7-4.4-4.7-4.4c0,0,4.7,2.8,4.6,2ZM81.2,392.6c2.8-17.1,11.6-30,19.6-28.7,8.1,1.3,12.3,16.3,9.6,33.4-2.8,17.1-11.6,30-19.6,28.7-8.1-1.3-12.3-16.3-9.6-33.4ZM68.6,377.9c-1,.4-.8,3.8-1.1,4.7s-2.1.4-3.1-.2c-1-.6-1.3-3-.8-4.6.5-1.6,4.7-1.6,4.7-1.6,0,0,3.8-2.7,4.1-.9.3,1.8-.1,6.3-.1,6.3,0,0-1.2-4.3-1.6-4.4-.4-.1-1.2.2-2.1.6ZM107.9,521.1s-5.4-1.1-6-1.5c-.6-.4-2.6-.3-3.3.2-.8.5-3.5.5-5.2.1s-20.2-9.2-21.3-10c-1.1-.8-1.3-2.8-1.7-3.4s-3.4-1.5-3.4-1.5l.4-3.1s2.5.8,3,.8,1.6-1.2,3.6-.8c2,.4,6.7,4,11.4,5.6,4.7,1.6,9.1,2.8,11.6,3.6,2.5.9,4.7,3.5,5.6,4.3s5.7,1.5,5.7,1.5l-.4,4.2ZM131.1,539.7s.1-1.4-1.4-1.7-10.3-1.8-12.3-2.4c-2-.5-2.7.5-2.7.5-2.1-2-2.6-4,.1-3.8,2.7.2,14.1,3.4,16.3,4.2,2.3.8,3.9,2.9,3.9,2.9l-3.9.2ZM135.5,533.9c-13.5-1.9-18.5-5-19.2-7.5-.8-2.7-.9-5.8-.6-8.5.2-2.7,1.8-3.1,3.2-3.1s7.7,1.9,14,3.3c6.2,1.4,25,3.8,38.7,3.9,13.7.1,56.6-.4,65.9-.5,9.3-.1,12,2.8,12.1,6.9.1,4.1-3,6.4-9.3,7.9-6.3,1.5-33.7,2.9-45.3,2.6-11.6-.3-45.9-3-59.5-4.9ZM355.5,537.8c-6.1,22-25.9,35.7-44.3,30.6s-28.3-27.1-22.2-49.1c6.1-22,25.9-35.7,44.3-30.6,18.4,5.1,28.3,27.1,22.2,49.1ZM370.9,468.1c-8.7-10-23-12.3-33.8-11.7-10.7.6-29.1,3.4-41.2,12-12.2,8.6-19.6,20.6-24.6,33.1-5,12.5-6.3,21-14.3,26.2-.3,6.6-7.4,12.6-26,13.6-18.6,1-36.6.6-36.6.6,0,0,36.1-1,44.1-2.7,8-1.7,13.5-3.9,14.7-9.6,1.3-5.7-4.2-11-15.5-10.7-11.3.3-31.3.4-46.7.4s-47.4-2.9-57.5-4c-10.2-1.1-33.1-8-48.2-15-15.2-7-21.6-11.6-22.8-17.2-1.7,1-1.9,4.7-1,6.3.9,1.6,3.1,2.1,3.3,4.3.1,2.1-.1,7.6-.1,7.6,0,0-5.6-6-6.3-10,.1,2.1.3,6.7,1.4,8.2,1.1,1.4,4.6,5.2,4.6,5.2l-.3,1.9s-5.2-4.4-6.7-9.6c-1.6-5.2,1.1-12,2.6-14,1.4-2,4.7-5.7,4.7-5.7,0,0-1.7,4.3.9,8.3,2.6,4,12.7,10.2,27.2,15.5,14.5,5.3,38.8,13.7,82,15.3,43.2,1.6,64.1.2,74,1.1,7.2.7,8.2,8.3,8.2,8.3,0,0,4.2-2.7,5.9-6,1.7-3.3,5.9-15.2,5.9-15.2,0,0-3.1,4.7-9.7,6.7-6.6,2-21.3,2.9-28.2,3.1s-34.8,0-34.8,0l.3-13.6h-3c0-.1.1-6,.3-6.6.1-.6,2.3-.4,2.3-.4v5s2-.3,2.3-2.1c.3-1.9.4-5.3.4-5.3h-4.7c0,.1,0-2,0-2h6.9c0,.1-4.3-2-4.3-2,0,0,2-54.2,2.4-63.1.4-8.9,3.6-36.5,5.3-40.5,0,0-2.6,27-3.1,40.9-.6,13.9-2.3,62-2.3,62l4.4,3.4s-2,.3-2,1.4,0,7.2-.3,7.9-2.6.9-2.6.9l-.3,11.7s27.8.4,32.9.3c5.2-.1,24.8-1.3,29.6-3.9,4.9-2.6,7.4-5.9,9.9-10.9,2.4-5,12.5-30.8,14.2-35.2,1.7-4.4,4.7-7.3,13.7-8.4,9-1.1,91.9-12,91.9-12,0,0-30.1,4.7-40.2,6.7-10.2,2-51.8,7.2-55.8,8-4,.9-6.7,3.7-9.2,9.4-2.4,5.7-8.4,21-8.4,21,0,0,7.6-13.5,20.8-21.8,13.2-8.3,31.2-10.2,40.9-10.6,9.7-.4,19.6-.3,29.9,7.9,12.3,9.7,14.9,27.6,16,38.4,0,0-4.4-22.6-13.2-32.6ZM388.2,513.8c-.9-4.6-2.3-9.4-2.3-9.4,0,0,184.6-30.3,189.6-31.2,5-.9,29.9-3.9,29.9-3.9l-217.5,36.5s.3,6.3.3,8ZM686.6,477.7c-5.1,18.2-20.4,29.8-34.3,26-13.8-3.9-20.9-21.8-15.8-40,5.1-18.2,20.4-29.8,34.3-26,13.8,3.9,20.9,21.8,15.8,40ZM722.8,449.9c-.7,0-20.9-1-20.9-1l-2-6s6.3.3,8.3.4c2,.1,3.6,2.7,3.6,2.7l-9.3.4s.3.7,1.1,1.1c.9.4,5.6.1,7.4.1s5.4,1.7,5.4,1.7l-1.1-1.7s6.7-.6,7.3.4c0,0,.9,1.7.1,1.7ZM750,452.8c-1.5,3.8-13.5,6.2-15,6-1.5-.2-4.2-5.4-5.2-7.1-1.1-1.9,1.7-3.6,3.9-4.1,2.1-.4,10.7-2.6,12.7-6.4-2.8.9-10.1,3.2-13.1,3.9-3,.6-6.4,2.1-6.4,3.4-1.7-.2-2.4-1.3-1.9-2.8.4-1.5,3.2-2.1,6.4-2.8,3.2-.6,14.2-3.4,14.2-6s-1.7-.2-6.4,1.3c-4.7,1.5-13.7,4.1-14.2,3-.4-1.1-2.1-11.6-5.8-13.1-3.6-1.5-11.2-.2-18.7.6s-62.7,9.4-68.1,10.1c-5.4.6-9.2,3-12,8.6-2.8,5.6-5.2,9.9-6.4,12.2-1.3,2.4-2.4,4.5-9.4,5.6-7.1,1.1-207.8,35.4-210.2,35.9-2.4.4-2.6,0-2.1-4.9.4-4.9,1.1-87.4-.2-109.1-1.3-21.7-2.4-36.1-2.4-36.9s3-.9,4.9-1.1c1.9-.2,277.2-29.2,277.2-29.2,0,0-276.1,31.3-277.8,31.6s-2.4,3-2.1,4.3c.2,1.3,2.8,35.2,3.2,65.7.4,30.5-.9,72.1-.9,75.1s.9,1.7,2.1,1.7,204.4-34.1,209.1-35c4.7-.9,6.7-2.8,7.9-6,1.3-3.2,6.4-12,7.7-14.4,1.3-2.4,4.9-4.3,8.4-5.2,3.4-.9,66.3-10.1,74.5-11.4,8.2-1.3,14.6-1.3,17.4,1.1,2.8,2.4,4.1,10.3,5.2,11.4,1.1,1.1,4.7,0,7.5-.9,6.4-1.9,9.9-2.8,10.5-4.9.6-2.1,3-28.8,3.2-41.4.6,17.2-1.7,42.1-1.7,42.1,0,0,2.8,3,2.8,5.6,2.1,1.3,3.6,7.7,1.3,13.5Z" />
	<path class="cls-1" d="M660.4,441.3s-4.2-.1-7.6,1.6c-3.4,1.7-5.4,4-5.9,4.7-.4.7-.4,2.6-.4,2.6,0,0,6-5,13-5.9,1.4-.1.9-3,.9-3Z" />
	<path class="cls-1" d="M667.2,448.2c-8.7-2.4-18.5,5.3-21.9,17.3-3.4,12,1,23.7,9.7,26.1,8.7,2.4,18.5-5.3,21.9-17.3,3.4-12-1-23.7-9.7-26.1ZM675.4,474c-2,7.3-6.7,12.8-11.9,15,7.8-7.7,6.7-10.4,7.1-12.7-7.6,2.5-19.7.6-24.7-.3-.3-2.3-.2-4.7.2-7.1,5.8.3,16.4.8,16.4,0s-8.9-2.4-12.2-2.6c-1.4,0-2.5-.5-3.4-1.1,2.1-6.6,6.3-11.7,11.1-14,.9,2.4,1,5.7,1.1,6.9.1,1.9.3,2.6,2.1,3,1.9.4,2.7.9,2.7-1.3s.6-6.3,1-9.8c.5,0,1,.2,1.5.3,7.9,2.2,11.8,12.8,8.8,23.6Z" />
	<path class="cls-1" d="M638.4,485.4l2-1.1s-3-11.2-3.3-14.2c-1.3,7.9,1.3,15.3,1.3,15.3Z" />
	<path class="cls-1" d="M327.9,502.8c-11.6-3.2-24.1,5.5-28,19.5-3.9,14,2.4,27.9,13.9,31.2,11.6,3.2,24.1-5.5,28-19.5,3.9-14-2.4-27.9-13.9-31.2ZM341.2,530.1c-4.6,12.9-10.8,16.6-15.4,17,1.3-1.1,7.1-7.1,7.3-12-3.2.9-14,.9-17,.9s-11.6,0-9.4,5.8c1.1,2.8,3.7,6.6,6.1,9.7-8.4-3.1-13.3-12.5-12.6-22.9,7.6.7,23.2,1.2,26.8-.5-6-.6-19.1-4.6-25.4-6.4,3.9-12,14.8-19.5,25-17.2.2,5.4.4,12.8.4,15.2,0,3.9,2.1,4.5,4.5,3.4,1.7-.8,4.3-5.6,6.1-10.7,3.1,4.8,4.5,11.2,3.5,17.8Z" />
</svg>
